<svg version="1.0" xmlns="http://www.w3.org/2000/svg" xmlns:xlink="http://www.w3.org/1999/xlink" width="100%" height="100%" viewBox="0 0 340.000000 250.000000" preserveAspectRatio="xMidYMid meet" color-interpolation-filters="sRGB" style="margin: auto;">
	<g fill="#0070ad" class="icon-text-wrapper icon-svg-group iconsvg" transform="translate(81.3550033569336,63.358123779296875)">
		<g class="iconsvg-imagesvg" transform="translate(58.644996643066406,0)">
			<g>
				<rect fill="#0070ad" fill-opacity="0" stroke-width="2" x="0" y="0" width="60" height="59.67774020290431" class="image-rect"></rect>
				<svg x="0" y="0" width="60" height="59.67774020290431" filtersec="colorsb4012490316" class="image-svg-svg primary" viewBox="-0.0035329684615135193 -0.0021229833364486694 67.18367004394531 66.8228530883789" style="overflow: visible;">
						<path d="M48.28 32.41l15.29-8.83a1.83 1.83 0 0 1 2.68 1.11q.27 1 .48 2.05a1.8 1.8 0 0 1-.88 1.94L48.28 38.83v-6.42zm0 31.28v-7.16l10.1-5.83a1.83 1.83 0 0 1 2.38 2.67 33.57 33.57 0 0 1-10.25 9.15q-1.1.64-2.23 1.18zm0-12.8l17.64-10.18a1.77 1.77 0 0 0 .88-1.25q.24-1.26.37-2.54a1.83 1.83 0 0 0-2.73-1.78l-16.16 9.33v6.42zm0-24.12l13.8-8a1.83 1.83 0 0 0 .66-2.51q-.51-.88-1.07-1.71a1.82 1.82 0 0 0-2.43-.55l-11 6.33v6.42zm0-12.06V8.28l3.57-2.06a1.79 1.79 0 0 1 2 .12q.87.65 1.69 1.35a1.83 1.83 0 0 1-.27 3zM27.5 44.4l20.78-12v6.42l-13 7.49a1.82 1.82 0 0 0-.75 2.34 2.38 2.38 0 0 1 .19 1.28 2.35 2.35 0 0 1-1.19 1.82l-6.06 3.5V44.4zM48.28 8.28v6.42l-20.78 12v-6.42l20.78-12zm0 12.06l-20.78 12v10.75a2.35 2.35 0 0 0 .6-1.09 2.32 2.32 0 0 0-.1-1.59 1.82 1.82 0 0 1 .75-2.35l19.57-11.3v-6.42zm0 24.12l-20.78 12v10l.5.09a1.76 1.76 0 0 0 1.22-.22l13.9-8a2.37 2.37 0 0 0 1.21-2.19 2.45 2.45 0 0 0-.21-.92 1.82 1.82 0 0 1 .75-2.33l3.41-2v-6.42zm0 12.06v7.16a33.48 33.48 0 0 1-10.81 3.13 1.83 1.83 0 0 1-1.12-3.4l11.93-6.89zM27.5 14.64L44.73 4.7a1.79 1.79 0 0 0 .9-1.76 1.79 1.79 0 0 0-1.23-1.56Q43.07.94 41.71.6a1.76 1.76 0 0 0-1.35.19L27.5 8.22v6.43zm0-9.25V.17c5.67-1 2.06 2.57 0 5.22zm-17.23 49L27.5 44.4v10.85L16.85 61.4a1.79 1.79 0 0 1-1.93-.06 33.51 33.51 0 0 1-5-4.11 1.83 1.83 0 0 1 .38-2.88zM27.5.17v5.22a6.66 6.66 0 0 0-1.1 1.76 1.91 1.91 0 0 1-1 1.05L7.07 18.8a1.83 1.83 0 0 1-2.49-2.5A33.78 33.78 0 0 1 24.55.87c1.19-.33 2.16-.56 3-.7zm0 8L2.14 22.86a1.76 1.76 0 0 0-.84 1.07A33.88 33.88 0 0 0 0 31.69a1.79 1.79 0 0 0 .87 1.65 1.79 1.79 0 0 0 1.87 0l19.07-11a2.36 2.36 0 0 0 1.21-2q.07-1.23.22-2.45a1.78 1.78 0 0 1 .9-1.35l3.36-1.94V8.22zm0 12.06L1.1 35.52a1.79 1.79 0 0 0-.9 1.8 33.45 33.45 0 0 0 1.35 6.23 1.77 1.77 0 0 0 1.08 1.15 1.77 1.77 0 0 0 1.57-.12l18.73-10.81a2.39 2.39 0 0 0 1.13-2.7c-.07-.26-.13-.52-.19-.77a1.8 1.8 0 0 1 .87-2l2.76-1.6v-6.42zm0 12.06L4.16 45.82a1.82 1.82 0 0 0-.73 2.39q.49 1 1 2a33.93 33.93 0 0 0 2.11 3.22 1.82 1.82 0 0 0 2.38.5L27 43.5a2.5 2.5 0 0 0 .53-.41V32.34zm0 24.12l-7.66 4.42a1.83 1.83 0 0 0 .16 3.31 33.91 33.91 0 0 0 7.48 2.31z" fill="#0070ad" fill-rule="evenodd">
						</path>
				</svg>
			</g>
		</g>
		<g transform="translate(0,66.6777458190918)">
			<g data-gra="path-name" fill-rule="" class="tp-name iconsvg-namesvg" transform="translate(0,0)">
				<g transform="scale(1)">
					<g>
						<path d="M32.53-39.47L32.53-33.94 20.22-33.94 20.22 0 13.42 0 13.42-33.94 1.22-33.94 1.22-39.47 32.53-39.47ZM68.45-20.9L68.45-18.7Q68.45-12.9 66.44-8.53 64.44-4.15 60.71-1.8 56.98 0.54 52.13 0.54L52.13 0.54Q47.33 0.54 43.58-1.8 39.82-4.15 37.78-8.48 35.73-12.82 35.7-18.49L35.7-18.49 35.7-20.71Q35.7-26.48 37.75-30.9 39.8-35.32 43.52-37.67 47.25-40.01 52.08-40.01 56.9-40.01 60.63-37.69 64.36-35.38 66.39-31.03 68.42-26.67 68.45-20.9L68.45-20.9ZM61.59-18.7L61.59-20.77Q61.59-27.33 59.11-30.82 56.63-34.32 52.08-34.32L52.08-34.32Q47.63-34.32 45.12-30.84 42.61-27.35 42.56-20.98L42.56-20.98 42.56-18.7Q42.56-12.2 45.09-8.65 47.63-5.1 52.13-5.1L52.13-5.1Q56.68-5.1 59.14-8.57 61.59-12.04 61.59-18.7L61.59-18.7ZM86.64 0L75.28 0 75.28-39.47 86.94-39.47Q92.17-39.47 96.22-37.14 100.27-34.81 102.5-30.52 104.72-26.24 104.72-20.71L104.72-20.71 104.72-18.73Q104.72-13.12 102.48-8.86 100.25-4.61 96.11-2.3 91.98 0 86.64 0L86.64 0ZM86.94-33.94L82.14-33.94 82.14-5.48 86.61-5.48Q92.01-5.48 94.89-8.85 97.78-12.23 97.83-18.54L97.83-18.54 97.83-20.74Q97.83-27.16 95.04-30.55 92.25-33.94 86.94-33.94L86.94-33.94ZM143.05-20.9L143.05-18.7Q143.05-12.9 141.05-8.53 139.04-4.15 135.31-1.8 131.58 0.54 126.73 0.54L126.73 0.54Q121.93 0.54 118.18-1.8 114.42-4.15 112.38-8.48 110.33-12.82 110.3-18.49L110.3-18.49 110.3-20.71Q110.3-26.48 112.35-30.9 114.4-35.32 118.13-37.67 121.85-40.01 126.68-40.01 131.5-40.01 135.23-37.69 138.96-35.38 140.99-31.03 143.02-26.67 143.05-20.9L143.05-20.9ZM136.19-18.7L136.19-20.77Q136.19-27.33 133.71-30.82 131.23-34.32 126.68-34.32L126.68-34.32Q122.23-34.32 119.72-30.84 117.22-27.35 117.16-20.98L117.16-20.98 117.16-18.7Q117.16-12.2 119.7-8.65 122.23-5.1 126.73-5.1L126.73-5.1Q131.29-5.1 133.74-8.57 136.19-12.04 136.19-18.7L136.19-18.7ZM157.12-39.47L157.12 0 150.29 0 150.29-39.47 157.12-39.47ZM166.58-36.46L173.17-36.46 173.17-29.33 178.35-29.33 178.35-24.45 173.17-24.45 173.17-8.08Q173.17-6.4 173.83-5.65 174.5-4.91 176.2-4.91L176.2-4.91Q177.34-4.91 178.51-5.18L178.51-5.18 178.51-0.08Q176.26 0.54 174.17 0.54L174.17 0.54Q166.58 0.54 166.58-7.83L166.58-7.83 166.58-24.45 161.76-24.45 161.76-29.33 166.58-29.33 166.58-36.46Z" transform="translate(-1.2200000286102295, 40.0099983215332)">
						</path>
					</g>
				</g>
			</g>
			<g data-gra="path-slogan" fill-rule="" class="tp-slogan iconsvg-slogansvg" fill="#0070ad" transform="translate(24.284996032714844,46.54999923706055)">
				<g transform="scale(1, 1)">
					<g transform="scale(1)">
						<path d="M0.62-3.94C0.62-3.30 0.71-2.72 0.88-2.21C1.05-1.71 1.29-1.28 1.60-0.93C1.91-0.58 2.27-0.32 2.69-0.13C3.11 0.05 3.57 0.14 4.07 0.14C4.57 0.14 5.02 0.04 5.41-0.16C5.80-0.36 6.16-0.64 6.47-1.00L5.90-1.61C5.65-1.33 5.38-1.11 5.09-0.96C4.81-0.81 4.48-0.73 4.09-0.73C3.72-0.73 3.38-0.81 3.08-0.96C2.78-1.11 2.52-1.33 2.32-1.61C2.11-1.89 1.95-2.23 1.83-2.62C1.71-3.02 1.66-3.46 1.66-3.96C1.66-4.45 1.72-4.89 1.84-5.28C1.96-5.67 2.12-6.01 2.34-6.28C2.56-6.56 2.82-6.77 3.12-6.92C3.42-7.07 3.76-7.14 4.14-7.14C4.48-7.14 4.77-7.07 5.02-6.94C5.27-6.81 5.50-6.63 5.71-6.41L6.28-7.04C6.04-7.30 5.75-7.53 5.39-7.72C5.03-7.92 4.61-8.02 4.13-8.02C3.62-8.02 3.16-7.92 2.73-7.73C2.30-7.55 1.93-7.28 1.62-6.92C1.31-6.57 1.06-6.14 0.89-5.64C0.71-5.14 0.62-4.57 0.62-3.94ZM8.93-4.14L8.93-7.07L10.25-7.07C10.86-7.07 11.34-6.96 11.66-6.76C11.99-6.55 12.16-6.18 12.16-5.66C12.16-5.15 11.99-4.77 11.66-4.52C11.34-4.27 10.86-4.14 10.25-4.14ZM12.25 0L13.38 0L11.39-3.43C11.92-3.57 12.35-3.82 12.67-4.19C12.99-4.56 13.15-5.05 13.15-5.66C13.15-6.07 13.08-6.42 12.95-6.70C12.81-6.98 12.62-7.20 12.38-7.38C12.13-7.56 11.84-7.68 11.50-7.76C11.16-7.83 10.79-7.87 10.39-7.87L7.93-7.87L7.93 0L8.93 0L8.93-3.32L10.36-3.32ZM14.90-7.87L14.90 0L19.56 0L19.56-0.85L15.90-0.85L15.90-3.71L18.89-3.71L18.89-4.56L15.90-4.56L15.90-7.03L19.44-7.03L19.44-7.87ZM24.58-3.20L22.21-3.20L22.58-4.40C22.73-4.84 22.86-5.28 22.99-5.72C23.12-6.15 23.24-6.60 23.36-7.06L23.41-7.06C23.54-6.60 23.67-6.15 23.80-5.72C23.92-5.28 24.06-4.84 24.20-4.40ZM24.83-2.40L25.57 0L26.64 0L23.98-7.87L22.85-7.87L20.18 0L21.20 0L21.96-2.40ZM28.91-7.03L28.91 0L29.92 0L29.92-7.03L32.29-7.03L32.29-7.87L26.53-7.87L26.53-7.03ZM33.71-7.87L33.71 0L38.36 0L38.36-0.85L34.70-0.85L34.70-3.71L37.69-3.71L37.69-4.56L34.70-4.56L34.70-7.03L38.24-7.03L38.24-7.87ZM39.52 1.46L39.76 2.04C40.24 1.83 40.63 1.54 40.91 1.15C41.19 0.77 41.33 0.32 41.33-0.20C41.33-0.56 41.25-0.85 41.11-1.06C40.96-1.26 40.76-1.37 40.50-1.37C40.30-1.37 40.13-1.31 39.98-1.18C39.84-1.06 39.77-0.89 39.77-0.67C39.77-0.45 39.84-0.28 39.98-0.16C40.12-0.05 40.28 0.01 40.48 0.01C40.53 0.01 40.57 0.01 40.60 0C40.60 0.33 40.50 0.62 40.31 0.86C40.12 1.11 39.85 1.31 39.52 1.46ZM48.35 0.14C48.84 0.14 49.30 0.05 49.71-0.14C50.12-0.34 50.48-0.61 50.78-0.97C51.08-1.32 51.31-1.75 51.47-2.26C51.64-2.77 51.72-3.34 51.72-3.97C51.72-4.60 51.64-5.16 51.47-5.66C51.31-6.16 51.08-6.58 50.78-6.93C50.48-7.28 50.12-7.55 49.71-7.73C49.30-7.92 48.84-8.02 48.35-8.02C47.85-8.02 47.40-7.92 46.99-7.74C46.57-7.56 46.22-7.29 45.92-6.94C45.63-6.59 45.40-6.17 45.23-5.67C45.07-5.17 44.99-4.60 44.99-3.97C44.99-3.34 45.07-2.77 45.23-2.26C45.40-1.75 45.63-1.32 45.92-0.97C46.22-0.61 46.57-0.34 46.99-0.14C47.40 0.05 47.85 0.14 48.35 0.14ZM48.35-0.73C48.00-0.73 47.68-0.81 47.39-0.96C47.11-1.11 46.87-1.33 46.66-1.61C46.46-1.90 46.30-2.24 46.19-2.63C46.08-3.03 46.02-3.48 46.02-3.97C46.02-4.46 46.08-4.90 46.19-5.29C46.30-5.68 46.46-6.02 46.66-6.29C46.87-6.56 47.11-6.77 47.39-6.92C47.68-7.07 48.00-7.14 48.35-7.14C48.70-7.14 49.02-7.07 49.30-6.92C49.59-6.77 49.83-6.56 50.03-6.29C50.24-6.02 50.40-5.68 50.51-5.29C50.62-4.90 50.68-4.46 50.68-3.97C50.68-3.48 50.62-3.03 50.51-2.63C50.40-2.24 50.24-1.90 50.03-1.61C49.83-1.33 49.59-1.11 49.30-0.96C49.02-0.81 48.70-0.73 48.35-0.73ZM54.41-4.14L54.41-7.07L55.73-7.07C56.34-7.07 56.82-6.96 57.14-6.76C57.47-6.55 57.64-6.18 57.64-5.66C57.64-5.15 57.47-4.77 57.14-4.52C56.82-4.27 56.34-4.14 55.73-4.14ZM57.73 0L58.86 0L56.87-3.43C57.40-3.57 57.83-3.82 58.15-4.19C58.47-4.56 58.63-5.05 58.63-5.66C58.63-6.07 58.56-6.42 58.43-6.70C58.29-6.98 58.10-7.20 57.86-7.38C57.61-7.56 57.32-7.68 56.98-7.76C56.64-7.83 56.27-7.87 55.87-7.87L53.41-7.87L53.41 0L54.41 0L54.41-3.32L55.84-3.32ZM59.93-3.94C59.93-3.30 60.02-2.72 60.19-2.21C60.37-1.71 60.61-1.28 60.92-0.93C61.24-0.58 61.61-0.32 62.04-0.13C62.47 0.05 62.95 0.14 63.47 0.14C64.00 0.14 64.47 0.06 64.89-0.11C65.31-0.29 65.65-0.50 65.90-0.77L65.90-4.08L63.32-4.08L63.32-3.25L64.99-3.25L64.99-1.20C64.83-1.06 64.63-0.94 64.37-0.86C64.12-0.77 63.86-0.73 63.58-0.73C63.15-0.73 62.78-0.81 62.45-0.96C62.13-1.11 61.86-1.33 61.64-1.61C61.42-1.89 61.25-2.23 61.13-2.62C61.02-3.02 60.96-3.46 60.96-3.96C60.96-4.45 61.02-4.89 61.15-5.28C61.27-5.67 61.44-6.01 61.67-6.28C61.89-6.56 62.16-6.77 62.48-6.92C62.80-7.07 63.16-7.14 63.56-7.14C63.96-7.14 64.29-7.07 64.55-6.93C64.81-6.79 65.04-6.62 65.24-6.41L65.81-7.04C65.58-7.28 65.28-7.51 64.91-7.71C64.55-7.91 64.10-8.02 63.55-8.02C63.02-8.02 62.54-7.92 62.10-7.73C61.66-7.55 61.28-7.28 60.95-6.92C60.63-6.57 60.38-6.14 60.20-5.64C60.02-5.14 59.93-4.57 59.93-3.94ZM71.09-3.20L68.72-3.20L69.10-4.40C69.24-4.84 69.38-5.28 69.50-5.72C69.63-6.15 69.76-6.60 69.88-7.06L69.92-7.06C70.05-6.60 70.18-6.15 70.31-5.72C70.44-5.28 70.57-4.84 70.72-4.40ZM71.34-2.40L72.08 0L73.15 0L70.49-7.87L69.36-7.87L66.70 0L67.72 0L68.47-2.40ZM74.27-7.87L74.27 0L75.22 0L75.22-4.12C75.22-4.53 75.20-4.95 75.17-5.36C75.15-5.77 75.12-6.18 75.08-6.58L75.13-6.58L75.98-4.96L78.84 0L79.87 0L79.87-7.87L78.92-7.87L78.92-3.80C78.92-3.39 78.94-2.97 78.97-2.54C78.99-2.11 79.02-1.70 79.04-1.30L79.00-1.30L78.14-2.93L75.30-7.87ZM82.03-7.87L82.03 0L83.03 0L83.03-7.87ZM84.65-0.60L84.65 0L90.07 0L90.07-0.85L85.88-0.85L90.04-7.28L90.04-7.87L85.02-7.87L85.02-7.03L88.79-7.03ZM91.66-7.87L91.66 0L96.31 0L96.31-0.85L92.65-0.85L92.65-3.71L95.64-3.71L95.64-4.56L92.65-4.56L92.65-7.03L96.19-7.03L96.19-7.87ZM97.46 1.46L97.70 2.04C98.19 1.83 98.58 1.54 98.86 1.15C99.14 0.77 99.28 0.32 99.28-0.20C99.28-0.56 99.20-0.85 99.05-1.06C98.91-1.26 98.70-1.37 98.45-1.37C98.25-1.37 98.08-1.31 97.93-1.18C97.79-1.06 97.72-0.89 97.72-0.67C97.72-0.45 97.79-0.28 97.93-0.16C98.07-0.05 98.23 0.01 98.42 0.01C98.48 0.01 98.52 0.01 98.54 0C98.54 0.33 98.45 0.62 98.26 0.86C98.06 1.11 97.80 1.31 97.46 1.46ZM103.39-7.87L103.39 0L105.41 0C106.00 0 106.52-0.09 106.98-0.27C107.44-0.45 107.82-0.71 108.13-1.05C108.44-1.39 108.68-1.81 108.84-2.30C109.00-2.79 109.08-3.35 109.08-3.97C109.08-5.23 108.76-6.19 108.13-6.86C107.50-7.54 106.58-7.87 105.36-7.87ZM105.29-0.82L104.39-0.82L104.39-7.06L105.29-7.06C106.21-7.06 106.90-6.79 107.36-6.26C107.82-5.74 108.05-4.97 108.05-3.97C108.05-2.97 107.82-2.20 107.36-1.64C106.90-1.09 106.21-0.82 105.29-0.82ZM113.68 0.14C114.17 0.14 114.63 0.05 115.04-0.14C115.45-0.34 115.81-0.61 116.11-0.97C116.41-1.32 116.64-1.75 116.80-2.26C116.97-2.77 117.05-3.34 117.05-3.97C117.05-4.60 116.97-5.16 116.80-5.66C116.64-6.16 116.41-6.58 116.11-6.93C115.81-7.28 115.45-7.55 115.04-7.73C114.63-7.92 114.17-8.02 113.68-8.02C113.18-8.02 112.73-7.92 112.31-7.74C111.90-7.56 111.55-7.29 111.25-6.94C110.96-6.59 110.73-6.17 110.56-5.67C110.40-5.17 110.32-4.60 110.32-3.97C110.32-3.34 110.40-2.77 110.56-2.26C110.73-1.75 110.96-1.32 111.25-0.97C111.55-0.61 111.90-0.34 112.31-0.14C112.73 0.05 113.18 0.14 113.68 0.14ZM113.68-0.73C113.32-0.73 113.01-0.81 112.72-0.96C112.44-1.11 112.19-1.33 111.99-1.61C111.79-1.90 111.63-2.24 111.52-2.63C111.40-3.03 111.35-3.48 111.35-3.97C111.35-4.46 111.40-4.90 111.52-5.29C111.63-5.68 111.79-6.02 111.99-6.29C112.19-6.56 112.44-6.77 112.72-6.92C113.01-7.07 113.32-7.14 113.68-7.14C114.03-7.14 114.35-7.07 114.63-6.92C114.91-6.77 115.16-6.56 115.36-6.29C115.57-6.02 115.72-5.68 115.84-5.29C115.95-4.90 116.00-4.46 116.00-3.97C116.00-3.48 115.95-3.03 115.84-2.63C115.72-2.24 115.57-1.90 115.36-1.61C115.16-1.33 114.91-1.11 114.63-0.96C114.35-0.81 114.03-0.73 113.68-0.73ZM121.16-7.87L121.16 0L122.16 0L122.16-7.87ZM125.95-7.03L125.95 0L126.96 0L126.96-7.03L129.34-7.03L129.34-7.87L123.58-7.87L123.58-7.03Z" transform="translate(-0.624, 8.016)">
						</path>
					</g>
				</g>
			</g>
		</g>
	</g>
	<defs v-gra="od">
	</defs>
</svg>